<svg version="1.2" xmlns="http://www.w3.org/2000/svg" viewBox="0 0 2448 3505" width="2448" height="3505"><style>.a{fill:#fff}.b{fill:#371a45}.c{fill:#22a7f0}.d{fill:#fff031}.e{fill:#220f2d}</style><path class="a" d="m951.2 1984.5c0 0 170.9 116.1 334.4 163.9 47.2 13.8 93.8 21.9 135.4 19.9 207.5-10.1 481.4-228.3 531.1-518.6 10.7-62.5 15.4-193.9-2.4-307.5-15.1-96.2 26.5-249.9-35.2-251.5-78.7-2.1-85.3 236.4-85.3 236.4 0 0-61 54.8-87.5 56.1-26.1 1.3-57.4-29.9-74-1.4-51.9 89.4-28.4 171.1-28.4 171.1 0 0-175.6 184-258.9 199.2-22.1 4-52.5-0.7-87.5-9.9-29.7-7.9-62.6-19-96.3-31.1-84.5-30.2-173.8-65.7-229.2-67.3l-14.2 298.7z"/><path class="a" d="m273 2632.2c97.9 123.4 346.8 76 346.8 76l-8.9-643.8-2.8-200.7-0.3-18.5-2.1-152.1c0 0-93 3.9-185.5 30.1-15.3 4.3-30.8 9.3-45.7 15q-9.4 3.5-18.6 7.4c-51.7 22.4-95.4 54.2-111.2 99.1-55 156.1-52.2 686.1 28.3 787.5z"/><g style="opacity:.3"><path class="b" d="m207.4 2197.8c-0.3 185.2 20.4 377.4 65.6 434.4 97.9 123.4 346.8 76 346.8 76l-10.6-223.2c0 0-248.9 47.4-346.8-76-26.6-33.4-44.6-113.4-55-211.2z"/></g><path fill-rule="evenodd" class="b" d="m634.3 1678.2l125.8 242 4.3 8.3-0.7 9.2c-13.7 168.3-34.2 423.3-35 441.5-0.2 8.4-5.4 31.5-39 173.8-19 80.7-38.4 161.9-38.6 162.7l-4.8 20.3-20.5 3.9c-2 0.4-50.7 9.5-114.2 9.5-85.2 0-200.2-16.9-263.9-97.1-58.3-73.5-69.7-299-71.9-392.6-4.2-180.2 10.9-347.3 38.5-425.7 24-68.2 98.5-118.1 221.5-148.3 86.2-21.1 165.2-24.7 168.5-24.9l20.5-0.9zm-389.6 166.6c-54.9 156.1-52.2 686.1 28.3 787.5 55.4 69.8 159 84.9 238.6 84.9 61.2 0 108.2-8.9 108.2-8.9 0 0 77.3-324 76.7-329-0.6-5.1 35-444.1 35-444.1l-125.8-242.1c0 0-312.3 13.5-361 151.7z"/><path class="a" d="m227 2275.3l170.3 10c15.2 0.9 27.9 11.9 30.9 26.9 10.8 54.7 29.3 182.3-23.4 225.5-43.7 35.8-115.7 32.8-158.5-2.2-47.8-39.1-54.5-164.5-54.7-226.6-0.1-19.3 16.1-34.7 35.4-33.6z"/><g style="opacity:.3"><path class="b" d="m428.2 2312.2c10.8 54.7 29.3 182.4-23.4 225.5-43.8 35.8-115.7 32.8-158.5-2.2-29.4-24-43.2-80.8-49.6-135.3 8.1 27.2 20.5 49.1 35.7 63.4 87.1 81.9 149.5-17.3 149.5-17.3 0 0 11.5 23.6 20.4 24.8 37.1 5.1 27.6-110.7 21.2-170.5 2.2 3.4 3.9 7.3 4.7 11.6z"/></g><path fill-rule="evenodd" class="b" d="m327.9 2577c-32.4 0-65.2-10.3-90.3-30.8-51.3-42-59.4-166.7-59.7-237.3-0.1-12.9 5.3-25.5 14.7-34.4 9.4-8.9 22.3-13.6 35.2-12.9l170.3 10c21.5 1.3 39.4 16.8 43.6 37.9 13.7 69.3 28.3 192.6-28.2 238.8-23.4 19.2-54.3 28.7-85.6 28.7zm-102.9-288c-5.1 0-9.8 1.9-13.5 5.4-4 3.8-6.2 8.9-6.2 14.4 0.5 110.2 19 191 49.7 216.1 38.9 31.9 103.6 32.9 141.1 2.2 32.7-26.8 39.7-106.1 18.6-212.3-1.7-8.8-9.2-15.3-18.2-15.8l-170.3-10q-0.6 0-1.2 0z"/><path class="b" d="m314.8 1825.9c4.9-6.2 11.8-10.3 18.8-13.7 18.9-8.7 39.4-13 59.7-16.1 80.2-10.2 182.1-0.4 228.4 75.7 4.5 7.8 1.9 17.7-5.9 22.2-8 4.6-18.4 1.5-22.5-6.8-10.1-20.3-28.1-36.6-49.6-48-44.5-23-98.3-28.4-148.3-24.7-18.9 1.7-38.1 4.6-55.7 11.5-6.2 2.4-11.5 5.4-14.7 9.2-6.1 6.6-16.3-2.5-10.2-9.3z"/><g style="opacity:.3"><path class="b" d="m951.2 1984.5c0 0 283.9 192.8 469.8 183.8 207.5-10.1 481.4-228.3 531.1-518.6 6-35.1 10.1-91.8 9.4-155-3.8 10.6-6.6 20-7.9 28-49.7 290.4-323.7 508.6-531.1 518.6-172.3 8.4-428.7-156.5-465.4-180.8z"/></g><path fill-rule="evenodd" class="b" d="m1408.1 2184.7c-188.6 0-454.5-179.1-466-186.9-4.7-3.2-7.3-8.5-7.1-14.1l16.3-340.6c0.4-8.8 7.7-15.8 16.6-15.4 50.2 1.5 122.1 27.6 198.3 55.2 82.7 30.1 168.2 61.2 211.3 53.3 61.6-11.2 191.6-134.1 244.2-188.2-4.9-25.1-12.9-96.9 32.1-174.3 17.4-30 46.7-19.1 64.2-12.5 8.3 3 16.9 6.2 22.9 5.9 11.7-0.5 45.6-24.3 72.4-47.6 0.8-17.7 3.8-65.8 13.2-114.5 17-87.6 46.7-131.4 88.5-130.4 12.3 0.3 23.1 5.1 31.2 13.7 23 24.8 20.6 77.4 17.9 138.4-1.8 39.4-3.7 80.1 1.5 113 17.3 110.8 14.2 243.8 2.4 312.7-23.6 137.7-98.6 270.4-211.4 373.6-102.7 93.9-227.8 153.2-334.8 158.4q-6.8 0.3-13.7 0.3zm-440.4-208.6c45.7 29.8 290.6 183.9 452.5 176.1 204.5-10 468.6-228.2 516-505.3 11.4-66.3 14.4-194.8-2.5-302.2-5.6-36.1-3.7-78.5-1.8-119.4 2.1-47 4.5-100.2-9.3-115-1.6-1.6-3.8-3.3-8.5-3.5q-0.3 0-0.5 0c-42.4 0-65.8 131.4-68.3 220.7-0.1 4.4-2.1 8.6-5.3 11.5-15.3 13.8-67.6 58.9-97.5 60.3-12.7 0.7-25-3.9-35.7-7.9-21.4-8-22.4-6.2-25.2-1.5-47.9 82.5-27 157.8-26.8 158.6 1.6 5.5 0.1 11.4-3.8 15.6-7.4 7.6-180.3 187.9-267.7 203.8-51.7 9.4-137.4-21.7-228.1-54.6-62.7-22.8-127.3-46.3-172.5-52.1z"/><path class="a" d="m905 3394c42 28 113 52.3 213.6 52.2 140.6-0.1 255.3-7.2 254.1-118.9-0.9-88.6-139.4-128.5-139.4-128.5 61.7-248.7 76.1-464.1 71.2-659.3-1.6-65.6-5.4-128.9-10.3-190.5l-469.8 96.1c30.7 139.5 42 274.9 45.3 398 7.7 288.2-28.8 508.2 35.3 550.9z"/><g style="opacity:.3"><path class="b" d="m824.4 2445.1c2.1 9.2 4 18.4 5.8 27.6q1.2 5.7 2.3 11.5 1.6 7.7 3 15.3 1.9 10.1 3.6 20.1 0.6 3.2 1.1 6.5c0.8 4.5 1.5 8.9 2.3 13.4 1 6.2 2 12.4 2.9 18.6q1 6.1 1.9 12.1 3.7 25.8 6.8 51.3c1.3 10.5 2.4 20.9 3.5 31.3 0.6 5.6 1.2 11.1 1.7 16.6 0.5 4.8 0.9 9.6 1.3 14.4q1.1 11.7 2 23.3 0.7 8 1.3 15.9c0.5 7.4 1 14.9 1.5 22.3 0.3 4.7 0.6 9.4 0.8 14 0.3 4.5 0.5 8.9 0.8 13.3 0.4 7.7 0.7 15.4 1.1 22.9q0 0.8 0 1.6c0.7 15.5 1.2 30.8 1.6 46 7.7 288.2-28.8 508.2 35.3 550.9 42 28 113 52.3 213.6 52.2 112.3-0.1 208.2-4.7 241.5-63.4-46.6 18.8-114.2 20.9-189.3 20.9-100.5 0.1-171.6-24.2-213.6-52.1-44.2-29.5-40.5-143.6-36.5-306.4 2.7-110.8 63.8-210.6 157-251.9 112.2-49.8 200.6-135.4 226.8-253.8-1.6-65.6-5.4-128.9-10.3-190.5l-411.1 84.1z"/></g><path class="b" d="m1118.2 3462.3c-121.6 0-191.4-34.4-222.1-54.9-50.8-33.8-48.1-143.9-44-310.5 4.2-171.1 10-405.3-43.4-648.3-1.9-8.7 3.6-17.3 12.3-19.2 8.7-1.9 17.3 3.6 19.2 12.3 54.3 246.8 48.4 483.3 44.2 656-3.6 144.7-6.4 258.9 29.5 282.9 27.8 18.5 91.2 49.5 204.3 49.5q0.2 0 0.4 0c92.9-0.1 179.4-3.3 216.6-40.9 14.7-14.9 21.7-35.1 21.4-61.7-0.8-75.7-126.4-112.8-127.7-113.2l-14.9-4.3 3.7-15.1c85.1-343.2 78.3-619.6 60.5-844.6-0.7-8.9 5.9-16.6 14.8-17.3 8.7-0.7 16.6 5.9 17.3 14.8 17.8 224.4 24.7 499.4-57.8 840.4 38 13.8 135.5 57.2 136.4 139 0.3 35.1-10 63.6-30.7 84.6-46.1 46.6-135.8 50.4-239.6 50.5q-0.2 0-0.4 0z"/><path class="b" d="m1023.9 2994.6c-95.3 0-155.1-29.7-159.3-31.9-6.8-3.4-9.4-11.7-6-18.4 3.5-6.8 11.7-9.4 18.4-6 1.8 0.9 174.9 85.8 403.9-44.4 6.6-3.8 14.9-1.5 18.7 5.1 3.7 6.6 1.4 15-5.2 18.7-104.8 59.7-198 76.9-270.5 76.9z"/><path class="b" d="m1227.8 3214c-61.4-23.6-131-22.9-193.8-4.1-8.4 2.2-19.3 6.8-27.5 9.5 0 0 12.9-6.7 12.9-6.7 48.4-25.3 103.1-38 157.9-36.9 20.8 0.5 41.7 2.5 61.9 8 21.5 7.4 9.8 38.8-11.4 30.2z"/><g style="opacity:.3"><path class="b" d="m924 2756.5q-1-21-2.7-43.5c1.1 15 2 29.5 2.7 43.5z"/></g><g style="opacity:.3"><path class="b" d="m920.4 2700.7q-1-12.3-2.1-25c0.7 8.5 1.5 16.8 2.1 25z"/></g><g style="opacity:.3"><path class="b" d="m914.5 2636.4c-0.8-7.8-1.7-15.7-2.6-23.8 0.9 8.1 1.7 16 2.6 23.8z"/></g><g style="opacity:.3"><path class="b" d="m911.4 2608.9c-1-9.2-2.2-18.5-3.4-27.9q1.8 14.2 3.4 27.9z"/></g><path class="a" d="m468.3 2525.6c-18.8-35.4-30.7-75.8-33.9-121.4-4.4-61.6-3.6-135 1.3-212.6 2-31.9 4.7-64.5 8.1-97.4 9.1-89.9 23-181.3 40.1-263.3 0.8-3.9 1.6-7.7 2.4-11.6 10.6-49.5 22.3-95.4 34.9-135.2 6.5-20.7 13.3-39.9 20.3-57.1 26.6-65.7 560.3-147.7 648.7 55.9 2.3 9.5 4.4 18.9 6.4 28.2 1.7 7.5 3.2 14.8 4.8 22.2 5.8 28 10.8 55.3 15.7 83.1 8.2 45.7 16.1 92.5 26.5 145.3 12.5 62.6 27.9 125 42 186.7 14.2 61.8 27.1 122.9 34.6 183 51.5 417.2-681.8 514.5-851.9 194.2z"/><g style="opacity:.3"><path class="b" d="m434.4 2338.7c3 42.6 13.6 80.7 30.3 114.3 44.5 8.6 137.3 17.4 314.3 2.9l1.1 18.3c2.5 42.9 39.8 75.9 82.6 73.4l175.6-10.5c52.6-3.1 69.2 69.9 20.3 89.7-209.2 84.7-479.5 69.9-576.2-112.1-1.2-2.4-16.5-59.3-17.7-61.7-10.8-2-18.7-4.1-24.3-5.8q-2.2-10.3-3.7-21.1c5 36.8 15.9 69.9 31.6 99.5 169 318.2 893.9 224.3 852.8-186.2-3.4 31.6-11.7 60.8-24 87.7l-1.4-23.8-9.1-152.6c-2.5-42.9-39.7-75.8-82.6-73.2l-362 21.5c-5.4 0.3-10.6 1.1-15.5 2.5-35.1 9.3-60.1 42.5-57.9 80.1l2 33c-48.2 6-219 23.7-338-9.1q0.6 17.1 1.8 33.2z"/></g><g style="opacity:.3"><path class="b" d="m431.7 2339.6c0.1 8.7 0.3 17.1 0.7 25.4q0.2 7.1 0.5 14 0.6 12.9 1.5 25.1c0 0.2 0 0.4 0 0.6 0.2 2.7 0.4 5.3 0.7 7.9v0.2c0.2 1.6 0.3 3.2 0.5 4.9 0.4 2.8 0.7 5.6 1.1 8.4q1.5 10.8 3.7 21.1c5.6 1.7 13.5 3.8 24.3 5.8-16.7-33.6-27.3-71.7-30.3-114.3q-1.2-16.1-1.8-33.1-0.5-11.2-0.7-22.9c-0.2 7.6-0.3 15.2-0.3 22.6q-0.2 17.5 0.1 34.3z"/></g><path class="b" d="m1185.3 1685.1c-85.3-139.9-394.3-125.8-534.9-91.2-23 5.6-45.7 12.1-67.1 21.6-9.8 4.5-19.8 9.2-26.2 16.7 0 0-0.4 0.4-0.4 0.4q0 0.2-0.1 0.3 0 0.1-0.1 0.2c-0.1-0.1-0.3 0.7-0.5 1.1l-1 2.8c-32 82.9-50.9 170.1-67 257.5-25.1 143.8-40.8 290-40.1 436 0.9 39 0.7 80.5 9.4 118.6 21.4 102 102.5 176.8 197.4 213.6 170.8 66.1 398.1 44.5 543.5-70.7 73.7-58 117.1-150.4 107.2-244.7-4.5-48-13.8-95.8-24.3-142.9-18.1-79.4-40.7-159.6-42.7-241.7-0.3-5.9 8.5-7.6 10.5-2.1 35.6 92.3 55.7 188.6 74 285.5 21.4 107.9 29.2 198.9-34.9 295.5-146.1 212.8-531.3 247.4-734.8 102.7-63.1-44.5-111.2-112-127.3-188.1-7.8-32.3-8.6-67.4-9.9-100.6-2.9-156.5 13.4-312.7 40.2-466.8 16.4-88.9 36-178.9 68.8-263.7 15.6-51.7 167.3-73.5 216.2-80 129.9-15.4 339.3-20.3 430 89.9 10.7 13.7 19.2 29.3 23.9 45.8 0.9 2.9-0.8 5.9-3.7 6.7-2.4 0.7-4.9-0.4-6.1-2.4z"/><path class="a" d="m1320.2 2369.3c-38 0-68.6-30.7-68.6-68.6 0-38 30.6-68.7 68.6-68.7 37.9 0 68.6 30.7 68.6 68.7 0 37.9-30.7 68.6-68.6 68.6z"/><g style="opacity:.3"><path class="b" d="m1388.8 2300.6c0 37.9-30.7 68.7-68.6 68.7-37.9 0-68.7-30.8-68.7-68.7 0-10.4 2.4-20.4 6.6-29.3 11 23.2 34.7 39.3 62.1 39.3 27.3 0 51-16.1 62-39.3 4.2 8.9 6.6 18.9 6.6 29.3z"/></g><path fill-rule="evenodd" class="b" d="m1320.2 2383c-45.6 0-82.4-36.8-82.4-82.3 0-45.6 36.8-82.4 82.4-82.4 45.5 0 82.3 36.8 82.3 82.4 0 45.5-36.8 82.3-82.3 82.3zm54.9-82.3c0-30.4-24.6-54.9-54.9-54.9-30.4 0-54.9 24.5-54.9 54.9 0 30.3 24.5 54.8 54.9 54.8 30.3 0 54.9-24.5 54.9-54.8z"/><g style="opacity:.3"><path class="b" d="m431.7 2339.6c0.1 8.7 0.3 17.1 0.7 25.4q0.2 7.1 0.5 14 0.6 12.9 1.5 25.1c0 0.2 0 0.4 0 0.6 0.2 2.7 0.4 5.3 0.7 7.9v0.2c0.2 1.6 0.3 3.2 0.5 4.9 0.4 2.8 0.7 5.6 1.1 8.4q1.5 10.8 3.7 21.1c5.6 1.7 13.5 3.8 24.3 5.8-16.7-33.6-27.3-71.7-30.3-114.3q-1.2-16.1-1.8-33.1c-0.4-0.1-0.7-0.2-1-0.3h-0.1c-0.1 11.7 0 23.1 0.2 34.3z"/></g><path class="a" d="m1248.6 2470.9l-362 21.5c-42.9 2.6-80.1-30.4-82.6-73.3l-11.5-192.7c-2.2-37.6 22.8-70.7 57.9-80.1 4.9-1.4 10.1-2.2 15.5-2.5l362-21.5c42.9-2.6 80.1 30.4 82.6 73.3l9.1 152.6 2.4 40.1c2.5 42.9-30.5 80-73.4 82.6z"/><g style="opacity:.3"><path class="b" d="m1248.6 2470.9l-362 21.5c-42.9 2.6-80.1-30.4-82.6-73.3l-11.5-192.7c-2.2-37.6 22.8-70.7 57.9-80.1 21.4 12.4 34.9 20.4 34.9 20.4 26.9 153.6 75.5 228.1 267.7 219.8 83-3.6 134.6-19.3 166.6-38.3l2.4 40.1c2.5 42.9-30.5 80-73.4 82.6z"/></g><path fill-rule="evenodd" class="b" d="m881.9 2506.3c-22.4 0-43.8-8.2-60.8-23.3-18.4-16.3-29.3-38.7-30.8-63.1l-11.5-192.7c-3-50.5 35.7-94.1 86.2-97.1l362.1-21.6c24.3-1.4 47.9 6.8 66.3 23.1 18.4 16.3 29.3 38.8 30.8 63.1l11.5 192.7c3 50.6-35.7 94.1-86.2 97.2l-362.1 21.5q-2.8 0.2-5.5 0.2zm350.7-370.5q-1.9 0-3.9 0.1l-362 21.6c-35.5 2.1-62.6 32.6-60.5 68.1l11.5 192.7c1 17 8.7 32.8 21.6 44.2 12.9 11.5 29.4 17.3 46.5 16.2l362-21.5c35.5-2.1 62.6-32.7 60.5-68.1l-11.5-192.7c-1-17.1-8.7-32.8-21.6-44.3-11.9-10.6-26.9-16.3-42.6-16.3z"/><path class="a" d="m1263.1 2468.6q-6.9 1.8-14.5 2.3l-362 21.5c-31.4 1.8-59.8-15.3-73.7-41.6-5-9.6-8.2-20.3-8.9-31.7l-5.1-85.6-1.7-28.3-4.7-78.8c-2.5-42.9 30.5-80 73.4-82.6l78.2-4.6c-35.7 8.9-61.2 42.3-59 80.3l6.2 104 5.3 88.7c2.5 42.8 39.7 75.9 82.6 73.3z"/><g style="opacity:.3"><path class="b" d="m1263.1 2468.6q-6.9 1.8-14.5 2.3l-362 21.5c-42.9 2.6-80.1-30.4-82.6-73.3l-6.8-113.9c10.3 19.6 28.2 43.3 54.5 44.3 14.4 0.6 28-10.5 39.6-26l5.3 88.7c2.5 42.8 39.7 75.9 82.6 73.3z"/></g><path fill-rule="evenodd" class="b" d="m881.8 2506.3c-22.3 0-43.7-8.2-60.7-23.3-18.4-16.3-29.3-38.7-30.8-63.1l-11.4-192.7c-1.5-24.4 6.7-48 23-66.3 16.3-18.4 38.8-29.4 63.2-30.8l78.2-4.7 4.1 27c-30 7.6-50.4 35.4-48.6 66.3l11.5 192.7c1 17.1 8.6 32.8 21.6 44.2 12.9 11.5 29.4 17.2 46.4 16.2l284-16.9 4.3 27c-5.6 1.4-11.4 2.3-17.2 2.6l-362 21.6q-2.8 0.2-5.6 0.2zm10.9-350.4l-26 1.6c-17.1 1-32.8 8.7-44.3 21.6-11.4 12.9-17.2 29.4-16.2 46.5l11.5 192.7c1 17 8.7 32.8 21.6 44.2 12.9 11.5 29.4 17.2 46.5 16.2l28.8-1.7q-0.5-0.4-1-0.9c-18.4-16.3-29.3-38.7-30.7-63.1l-11.5-192.7c-1.4-24.1 6.7-46.9 21.3-64.4z"/><path class="c" d="m1033.7 2308.9c0.4 7.1-6.6 65.2-6.6 65.2 0 0-18.2 1-40.6 2.2-27.9 1.5-52.1-26.2-54.1-62-1.9-35.7 19.2-65.8 47.2-67.3 18.9-1.1 40.6-2.2 40.6-2.2 0 0 12.9 52.5 13.5 64.1z"/><g style="opacity:.3"><path class="b" d="m1033.7 2308.9c0.4 7.1-6.6 65.2-6.6 65.2 0 0-18.2 1-40.6 2.2-27.9 1.5-52.1-26.2-54.1-62-1.9-35.7 19.2-65.8 47.2-67.3 18.9-1.1 40.6-2.2 40.6-2.2 0 0 12.9 52.5 13.5 64.1z"/></g><path fill-rule="evenodd" class="b" d="m984.3 2387.3c-15.9 0-31-7.3-42.8-20.8-11.9-13.6-19-31.9-20-51.6-1.1-19.7 4-38.6 14.3-53.4 10.9-15.5 26.2-24.6 43.2-25.5l49.7-2.7 2.2 8.9c1.3 5.4 13.1 53.8 13.7 66.1 0.4 7.5-4.9 53.3-6.6 67.1l-1.1 9.2-49.8 2.6q-1.4 0.1-2.8 0.1zm27.4-131.1l-31.5 1.7c-10.1 0.6-19.5 6.3-26.4 16.2-7.5 10.7-11.2 24.8-10.4 39.7 0.8 14.8 6 28.4 14.6 38.3 7.9 9.1 17.8 13.8 27.9 13.2l31.4-1.7c2.9-24.9 5.6-50.1 5.4-54.1-0.3-6.7-6.3-33.3-11-53.3z"/><path class="c" d="m1074.3 2306.7c1.9 35.7-19.2 65.9-47.2 67.4-27.9 1.5-52.1-26.2-54.1-61.9-1.9-35.8 19.2-65.9 47.2-67.4 28-1.5 52.2 26.2 54.1 61.9z"/><g style="opacity:.3"><path class="b" d="m1027.1 2374.1c-27.9 1.5-52.1-26.2-54.1-61.9-0.4-8.2 0.4-16.2 2.2-23.5 6.7 28.4 28 48.6 51.9 47.3 21.6-1.2 39.1-19.4 45.1-44 1.1 4.7 1.8 9.6 2.1 14.7 1.9 35.7-19.2 65.9-47.2 67.4z"/></g><g style="opacity:.7"><path class="a" d="m1073.5 2323.6c-4.7-31.9-27.4-55.5-53.3-54.1-23.4 1.2-42 22.6-46.3 50.6-0.4-2.6-0.7-5.3-0.9-7.9-1.9-35.7 19.2-65.9 47.2-67.4 28-1.5 52.2 26.2 54.1 61.9 0.3 5.8 0 11.5-0.8 16.9z"/></g><path fill-rule="evenodd" class="b" d="m1024.9 2385.1c-15.9 0-31-7.3-42.8-20.8-11.9-13.5-19-31.8-20-51.6-1.1-19.7 4-38.6 14.3-53.4 10.9-15.5 26.2-24.6 43.2-25.5 17-0.9 33.2 6.5 45.7 20.8 11.8 13.5 18.9 31.8 20 51.5 1 19.7-4.1 38.7-14.4 53.4-10.9 15.6-26.2 24.6-43.2 25.6q-1.4 0-2.8 0zm-2.6-129.4q-0.7 0-1.5 0c-10.1 0.6-19.5 6.3-26.4 16.2-7.5 10.8-11.2 24.8-10.4 39.7 0.8 14.8 6 28.4 14.6 38.3 7.9 9.1 17.8 13.8 28 13.2 10-0.5 19.4-6.2 26.3-16.2 7.5-10.7 11.2-24.8 10.4-39.6-0.8-14.8-5.9-28.4-14.5-38.3-7.6-8.6-16.9-13.3-26.5-13.3z"/><path class="b" d="m1136 2487.1c-5.9 0-10.7-4.6-11-10.5l-3.3-93.6c-1-28.8 9-56.5 28.3-78l4.7-5.3c15.9-17.7 24.1-41.5 22.5-65.2l-7-108.6c-0.4-6.1 4.2-11.3 10.2-11.7 6.1-0.3 11.3 4.2 11.7 10.2l7 108.7c2 29.6-8.3 59.2-28.1 81.2l-4.7 5.3c-15.4 17.3-23.5 39.5-22.7 62.6l3.4 93.6c0.2 6-4.5 11.1-10.6 11.3q-0.2 0-0.4 0z"/><path class="a" d="m398.5 2314.3c1.7 53.3 54.6 73.7 54.6 73.7 0 0 73.2 37.9 375 10.6 0 0 85.3-87.3-20.5-140.9 0 0-210.2 31-350.1-7-25.2-6.9-60.6 15.9-59 63.6z"/><g style="opacity:.3"><path class="b" d="m398.5 2314.3c1.7 53.3 54.6 73.7 54.6 73.7 0 0 73.2 37.9 374.9 10.6 0 0 48.3-49.4 27.2-96.7q-0.1 0.4-0.3 0.7c-9.7 25.9-34 43.5-61.5 45.7-272.8 21.4-340.3-13.6-340.3-13.6 0 0-37-14.2-50.1-50.1-3.2 8.4-4.9 18.3-4.5 29.7z"/></g><path fill-rule="evenodd" class="b" d="m634.2 2422.2c-134.5 0-179.9-18.5-186.6-21.7-6.6-2.7-60.9-26.6-62.9-85.8-0.9-27.3 9.2-51.3 27.6-65.9 14.5-11.5 32.8-15.7 48.8-11.4 135.5 36.9 342.4 7 344.5 6.7l4.3-0.6 3.9 2c34.8 17.6 54.8 40.8 59.5 69.1 8 48.5-33.7 91.8-35.4 93.6l-3.6 3.6-5 0.5c-79.8 7.2-143.9 9.9-195.1 9.9zm-185.8-159c-6.3 0-13.3 2.5-19.1 7.1-6.8 5.4-18 18.1-17.1 43.5 1.4 43.8 45.4 61.2 45.8 61.4l1.4 0.6c0.6 0.3 75.9 35 362 9.6 8.3-9.8 29.5-38.2 24.8-66.4-3.1-18.2-16.9-34-41.1-47.1-32 4.4-219.8 27.8-351.2-8q-2.6-0.7-5.5-0.7z"/><path class="a" d="m846.7 2689.7c0.9-14.2-25.2 362.8-55.2 593.5-21.6 165.5-159 182.7-378.7 165.5-80.9-6.3-142.9-32.9-136.6-103.5 8.4-94.7 134.1-130.6 134.1-130.6 0 0 31.3-389.7 56-794.3l404.5 174.6z"/><path class="b" d="m531.5 3470.4c-38.3 0-78.8-2.4-120-5.6-64-5-106.8-21.3-130.8-49.7-16.2-19.1-23.1-43.1-20.6-71.3 7.8-88.3 102.3-129.5 135-141.2 5.1-65.4 32.9-420.4 55.1-783.3 0.5-8.8 8.1-15.6 17-15.1 8.9 0.6 15.7 8.2 15.1 17.1-24.4 400.1-55.6 790.7-55.9 794.6l-0.9 11.1-10.8 3.1c-1.1 0.3-115.2 34.1-122.5 116.6-1.7 19.6 2.6 35.1 13.1 47.6 18 21.2 54.5 34.1 108.7 38.3 219.4 17.2 342-1.9 361.5-151.5 25.5-195.5 48.4-499.6 54.8-588.1 0.1-0.8 0.1-1.9 0.3-3.1q0-0.6 0-1.2h0.2q0-0.1 0-0.2h-0.2 0.2c1.1-6.7 4.5-16.1 17-15.3l16.1 1.1-1.1 16.4q0 0.4 0 0.7l-0.3 3.9c-6.5 88.8-29.5 393.6-55 589.9-19.8 151.7-133.6 185.2-276 185.2z"/><path class="b" d="m688.6 3026.9c-142.7 0-258.4-54-264.6-57-6.9-3.2-9.8-11.4-6.5-18.3 3.2-6.8 11.4-9.7 18.2-6.5 2 0.9 192.4 89.6 379.5 37.8 7.3-2 14.9 2.3 16.9 9.6 2 7.3-2.3 14.8-9.6 16.8-45.6 12.7-91 17.6-133.9 17.6z"/><path class="b" d="m405 3199.4c73.8-16.8 153.3-5.3 220.7 28.1 0 0 13.1 6.5 13.1 6.5-36.1-13.3-74.8-21.4-113.3-21.9-37.3-0.5-75.1 4.5-109.9 17.7-21.4 8.4-32.7-23.6-10.6-30.4z"/><g style="opacity:.3"><path class="b" d="m836.1 2701.3c0 6.3-15.4 357.6-44.6 581.9-21.6 165.5-159 182.7-378.7 165.5-80.9-6.3-142.9-32.9-136.6-103.4 0.1-1.7 0.3-3.3 0.5-4.9 24.9 18 62.2 26.9 104.7 30.2 219.7 17.2 357.2 0 378.7-165.6 22.4-171.4 58.7-402.2 75.5-503.6l0.4 0.2q0-0.2 0.1-0.3z"/></g><path class="a" d="m640.9 2468.8c-48.1 17.7-119.5 0-119.5 0 0 0-20.1 34.2-53.1 56.8-19.1 13-42.6 22.2-68.9 18.4-104-15.1-323.6-223.4-336.2-394.8-8.9-120 196.2-286.1 342.9-388.8h0.1c47.6-33.3 88.9-60 115-76.3 18.1-11.3 28.7-17.6 28.7-17.6l-32.9 169.9-3.1 16-40.6 209.9-29.5 31.9-39.1 42.4 31 55 7.6 13.5c0 0 27.8-22.8 51.6-24.3 23.8-1.6 137-4.6 171.4 39.1 34.4 43.7 22.8 231.2-25.4 248.9z"/><g style="opacity:.3"><path class="b" d="m71.3 2196c43 160.4 233.5 334.3 328.1 348 71.7 10.4 122-75.2 122-75.2 0 0 71.4 17.7 119.5 0 48.2-17.7 59.8-205.1 25.4-248.9q-3.7-4.7-8.6-8.8c7.6 71.9-8 176-43.3 189-48.2 17.7-98.8-13.5-119.6 0-20.8 13.6-50.2 85.6-122 75.2-81.1-11.8-232.9-141.4-301.5-279.3z"/></g><path class="b" d="m552.6 1671.1c-66 57.5-139.8 103.8-209.6 156.1-69.1 51.3-136.3 107.9-192.3 172.7-34.4 41.4-76.7 97-70.9 152.8 14.3 130.1 140.1 272.8 246.8 342.5 27.8 16.6 58.2 35.1 91.3 33.2 42.6-5.1 75.1-42.5 95.7-77.9 38.5 9.1 82.3 15.6 120.6 3.5 2.4-0.6 3.1-1.5 5-2.9 34.4-38.5 38.6-164.7 19.6-211.9-16.3-40.3-104.8-43-143.4-43-11.6 0.4-21.5-0.7-32.7 4-15.8 6-31 19.1-43.7 29.9 0 0-10-16.9-10-16.9-15.4-26.2-31.2-52.4-45-79.5 26.1-27.5 53.2-54.5 85.3-75.1 4.6-3 10.6 2.5 7.9 7.3-16 30.2-37.6 56.6-60 82.2 0 0 2.4-19.9 2.4-19.9 13.5 22.5 25.5 45.8 38 68.8l-24.7-4.6c12.3-9.2 23.7-16.3 37.9-22.2 13-5.8 29.8-6.2 44.2-6.3 51.3 0.6 121.1 2.9 160.1 41.6 43.2 45.8 31.7 219.1-9.6 264.9-5.6 6-12.7 11.7-20.6 14.1-28.5 9.5-57.8 9.4-86.7 6.6-13.7-1.4-26.7-3.4-40.7-6.6l17.8-7.5c-26 40.4-64.1 77.9-114.4 83.5-48.5 3.1-91.9-24.9-130.3-50.8-109-78.2-231.4-221.8-243.5-359.7-5.1-110.7 129.4-227.7 206.9-294.2 90.9-74.2 183.2-149.3 293.2-193.9 2.8-1.1 5.9 0.3 7 3.1 0.8 2.2 0.1 4.7-1.6 6.1z"/><path class="a" d="m1862.6 1631.6c-24.4-11-11.1 7.7-65.4-4.4-66.9-14.9-70.5-151.3-60-224.1 10.4-72.9 53.8-85.3 82.5-99.8 28.6-14.4 118.6 11.4 130 38.9 11.3 27.5 30.3 228.1-8.1 270.8"/><g style="opacity:.3"><path class="b" d="m1797.2 1627.2c54.3 12.2 41-6.6 65.4 4.4 0 0 13-47-41.3-59.1-66.8-15-70.4-151.3-59.9-224.2q0.6-4.1 1.3-7.9c-11.8 13.8-21.3 33.4-25.5 62.7-10.5 72.8-6.9 209.2 60 224.1z"/></g><path class="b" d="m1860.4 1636.5c-4.7 0.3-9.3 0.6-10.6 2-2.1 2.5-7.3 4.9-11.3 6-16 4.4-28.5 2.2-42.9-0.1-60.7-12.2-73.7-92.2-77.9-143-2.3-37.7-1.2-75.6 5.7-112.8 7.7-42.4 34.2-75.3 74.1-92.5 0 0 12.2-5.8 12.2-5.8 31.4-15.6 74.8-3.2 105.6 8 18.5 7.9 40.5 18 49.4 38.2 4.1 11.3 5.8 23 7.5 33.5 6.5 46 9.1 92 8.1 138.6-2.1 28.5 0.5 58-11.6 85-2.5 7.9-24 33.1-30.9 19.1-0.3-0.9-0.3-2.3-0.2-3.3 0.2-9.7 0.2-17.1 1.2-25.2 3.6-25.2 9.7-50.7 9.3-76.5 0.4-52.5-1.1-108-13.3-159.2-14.4-21.2-88.4-41.9-111-29.3-38.4 16.8-60.2 33.5-68.8 75.9-8.6 50.9-8.9 104.9 2.5 155.1 5.8 22.8 14.4 45.5 34.2 56.4 12.2 6.1 30 8.4 42.4 10.6 5 0.7 8.9-0.6 15.3 0.2 8.2 1.5 21.9 10.6 15.1 17.5-1.1 1.1-2.6 1.5-4.1 1.6z"/><path class="a" d="m1748.1 1352.6c0 0 92.1 127.3-4.1 148.5-36.7 8.1-89.8-87.3-76.3-119.3 13.5-32 44.1-43.4 80.4-29.2z"/><path fill-rule="evenodd" class="b" d="m1739.4 1517.7c-16.4 0-33.7-10.5-50.5-30.7-22.2-26.7-49.1-80.6-36-111.5 17-40.4 56.7-55.3 101.1-37.9 2.8 1.2 5.3 3.1 7.1 5.6 6 8.3 58 82.3 38.5 133.5-5.4 14.3-18.9 32.8-52.1 40.1q-4 0.9-8.1 0.9zm-20.6-155c-16.5 0-29.2 8.7-36.2 25.4-4.5 10.7 6.8 49.1 31.1 78.3 12 14.4 22.4 19.9 26.9 18.9 23.1-5.1 27.4-16.4 28.8-20.1 10.6-27.6-17.6-78.4-31.6-99.1-6.8-2.3-13.1-3.4-19-3.4z"/><path class="b" d="m1548.9 2152.9c-2.1 0-4.2-0.5-6.2-1.6-136.2-70.4-126.7-406.4-126.2-420.7 0.2-7.5 6.7-13.4 14.1-13.2 7.6 0.2 13.5 6.6 13.3 14.1-0.1 3.3-9.5 333 111.4 395.5 6.7 3.5 9.3 11.7 5.8 18.5-2.4 4.7-7.2 7.4-12.2 7.4z"/><path class="b" d="m64.3 2174.3c-2.3 0-4.7-0.6-6.9-1.9-6.5-3.8-8.7-12.2-4.9-18.8 67.8-115.4 344.4-33.7 356.2-30.2 7.2 2.2 11.3 9.9 9.1 17.1-2.1 7.3-9.8 11.4-17 9.2-74.3-22.3-277.4-62.6-324.6 17.8-2.6 4.4-7.2 6.8-11.9 6.8z"/><path class="b" d="m455.3 2215.9c-24.4 27.7-35.7 65.3-42.6 101.2-2.1 9.7-16.6 7.8-16-2.1 0 0 1-15.2 1-15.2 3.6-36.8 11.9-74.7 33.6-105.5 0 0 4.8-5.9 4.8-5.9 6-7.5 17-8.7 24.5-2.6 10.7 8.1 7.4 26.1-5.3 30.1z"/><path class="a" d="m1822.1 798.1l0.7 117.1c0 13.3 5.4 25.9 14.8 35.3l23.1 22.8c6.6 6.6 15.5 10.2 24.8 10.2l36.1-0.2c9.3-0.1 18.2-3.8 24.7-10.5l25.8-26c9.3-9.4 14.5-22.1 14.5-35.4l-0.7-114.2z"/><path fill-rule="evenodd" class="b" d="m1885.4 998.5c-13.3 0-25.9-5.1-35.3-14.5l-23.1-22.8c-12.4-12.2-19.2-28.5-19.3-45.9l-0.6-117.1c-0.1-8.4 6.6-15.1 14.9-15.2l163.9-0.9q0 0 0 0c4 0 7.8 1.6 10.6 4.4 2.9 2.8 4.5 6.6 4.5 10.6l0.6 114.2c0.1 17.4-6.6 33.8-18.8 46.1l-25.7 26.1c-9.5 9.5-22 14.8-35.4 14.8l-36.1 0.2q-0.1 0-0.2 0zm-48.1-185.4l0.5 102c0.1 9.3 3.7 18.1 10.4 24.6l23.1 22.9c3.7 3.7 8.7 5.8 14.1 5.8q0 0 0.1 0l36-0.2c5.4 0 10.4-2.1 14.1-6l25.8-26c6.6-6.6 10.1-15.4 10.1-24.7l-0.5-99.1z"/><path class="d" d="m2121.4 578.7c-0.7-119.8-98.3-216.5-218.2-215.8-119.9 0.6-216.6 98.3-215.9 218.2 0.4 80.3 44.5 150.1 109.5 187.3 2.6 48.6 53.7 75.9 116.3 75.5 64.1-0.3 115.8-30 115.6-80.3q-0.1-2.8-0.3-5.6c56.5-39.5 93.4-105.1 93-179.3z"/><path fill-rule="evenodd" class="b" d="m1911.9 859c-71.1 0-121.7-32.3-129.3-81.5-67.9-41.9-110-116.4-110.4-196.4-0.3-62 23.5-120.4 67.1-164.5 43.6-44 101.8-68.5 163.8-68.8 61.9-0.2 120.4 23.5 164.5 67.1 44.1 43.6 68.5 101.8 68.9 163.8 0.4 73.5-34.2 142.7-92.8 186.8-0.5 28.1-14.8 52.7-40.4 69.6-23.2 15.2-55.2 23.7-90.1 23.9q-0.7 0-1.3 0zm-7.5-481.1q-0.6 0-1.1 0c-54 0.3-104.6 21.6-142.5 59.9-38 38.4-58.7 89.2-58.4 143.2 0.3 71.8 39.4 138.6 101.9 174.3 4.4 2.6 7.3 7.2 7.6 12.3 2.3 42.4 51.7 61.3 100.1 61.3q0.5 0 1 0c29.2-0.2 55.4-6.9 73.7-19 18-11.8 27-27.3 26.9-46.2q0-2.2-0.2-4.4c-0.5-5.4 1.9-10.6 6.4-13.7 54.5-38 86.9-100.4 86.5-166.8-0.3-53.9-21.6-104.5-59.9-142.5-38.1-37.7-88.5-58.4-142-58.4z"/><path fill-rule="evenodd" class="b" d="m1868.9 851.4q-1.4 0-2.8-0.4c-6.5-1.5-10.5-8-8.9-14.5 5.1-21.5 12-65.1 9.6-105.7-62.5-8.2-77.7-41.4-81.1-52.8-6.1-20.1 1-41.1 17-51 16.4-10.1 36.7-6.1 54.5 10.6 18.2 17.2 27.5 43.2 31.6 70.8q7.6 0.3 15.9 0c6.8-0.2 12.2 5.1 12.4 11.7 0.2 6.7-5 12.2-11.7 12.4q-7.4 0.2-14.3 0.1c2.6 53.4-9.6 105.9-10.5 109.5-1.3 5.5-6.2 9.3-11.7 9.3zm-46.9-205.7q-3.6 0-6.6 1.8c-5.8 3.5-9.9 12.8-6.6 23.6 4.3 14.3 21.1 29.1 55.1 34.9-3.7-20.8-10.9-39.1-23.3-50.9-6.6-6.2-13.1-9.4-18.6-9.4z"/><path fill-rule="evenodd" class="b" d="m1942.5 851c-5.4 0-10.3-3.7-11.7-9.2-0.9-3.6-13.7-55.9-11.6-109.4q-6.9 0.3-14.3 0.1c-6.7-0.1-12-5.6-11.9-12.2 0.1-6.7 5.7-11.9 12.3-11.9q8.4 0.2 16-0.2c3.7-27.7 12.7-53.7 30.8-71.1 17.6-16.9 37.9-21.1 54.3-11.2 16.2 9.7 23.5 30.6 17.6 50.8-3.2 11.5-18.1 44.8-80.5 53.7-2 40.6 5.4 84.2 10.7 105.6 1.6 6.4-2.3 13-8.7 14.6q-1.5 0.4-3 0.4zm45-206.2c-5.5 0-12 3.3-18.6 9.6-12.3 11.9-19.3 30.3-22.8 51.1 34-6.1 50.6-21 54.8-35.4 3.1-10.9-1.1-20.1-6.9-23.6-1.9-1.1-4.1-1.7-6.5-1.7z"/><path class="b" d="m1904 942.8c-49.3 0-84.1-15.6-86.3-16.6-6-2.8-8.7-10-5.9-16 2.8-6.1 9.9-8.7 16-6 1 0.5 73.5 32.6 154-1 6.2-2.6 13.2 0.3 15.8 6.5 2.6 6.1-0.3 13.2-6.5 15.8-31.3 13-61.2 17.3-87.1 17.3z"/><path class="b" d="m1903.8 899.5c-49.3 0-84.1-15.7-86.3-16.7-6.1-2.8-8.7-9.9-5.9-16 2.8-6 9.9-8.7 15.9-5.9 0.8 0.3 73.4 32.6 154.1-1 6.1-2.6 13.2 0.3 15.8 6.4 2.5 6.2-0.4 13.2-6.5 15.8-31.3 13.1-61.2 17.4-87.1 17.4z"/><path class="a" d="m1711.2 930.8c-3.6-2.8 8.4-24.6 27-48.8 18.5-24.1 36.5-41.4 40.1-38.6 3.6 2.8-8.4 24.6-27 48.7-18.5 24.2-36.5 41.5-40.1 38.7z"/><path class="a" d="m1518.3 907.9c-2.8-3.5 20.7-27 52.5-52.3 31.8-25.3 59.8-42.9 62.7-39.4 2.9 3.6-20.6 27.1-52.4 52.4-31.8 25.3-59.9 42.9-62.8 39.3z"/><path class="a" d="m1523.3 788.4c-2.8-3.6 5.2-14.5 17.9-24.3 12.7-9.8 25.2-14.9 28-11.3 2.9 3.7-5.2 14.6-17.9 24.4-12.7 9.8-25.2 14.8-28 11.2z"/><path class="a" d="m1430.1 741.2c-1.5-4.3 28.1-18.7 66.1-32.3 38-13.5 70.1-21 71.6-16.7 1.6 4.3-28 18.8-66 32.3-38.1 13.6-70.2 21.1-71.7 16.7z"/><path class="a" d="m1482.5 589c-0.1-4.6 17.9-8.7 40.3-9.2 22.3-0.5 40.5 2.8 40.6 7.3 0.1 4.6-17.9 8.7-40.3 9.3-22.3 0.5-40.5-2.8-40.6-7.4z"/><path class="a" d="m1406.4 445.1c1.5-4.3 31.6 2.6 67.2 15.3 35.6 12.7 63.1 26.5 61.6 30.8-1.5 4.3-31.6-2.5-67.2-15.2-35.6-12.7-63.2-26.5-61.6-30.9z"/><path class="a" d="m1547.8 370.3c3.1-3.3 17.1 4.8 31.1 18.1 14 13.3 22.8 26.7 19.7 30-3.2 3.4-17.1-4.7-31.1-18-14.1-13.3-22.9-26.8-19.7-30.1z"/><path class="a" d="m1594 194c3.6-2.8 29 23.5 56.6 58.8 27.6 35.3 47.1 66.2 43.5 69-3.6 2.9-28.9-23.5-56.6-58.7-27.6-35.3-47.1-66.2-43.5-69.1z"/><path class="a" d="m1774.9 202.4c4.3-1.4 13 13.9 19.2 34.1 6.3 20.3 7.8 37.8 3.4 39.1-4.4 1.4-13-13.9-19.2-34.2-6.3-20.2-7.8-37.7-3.4-39z"/><path class="a" d="m1873 70.3c4.6-0.3 10.7 37.9 13.6 85.3 3 47.4 1.7 86.1-2.9 86.3-4.6 0.3-10.7-37.9-13.6-85.3-3-47.4-1.7-86 2.9-86.3z"/><path class="a" d="m2004.8 203.4c4.6 0.8 5.7 16.1 2.6 34.2-3.2 18.2-9.3 32.2-13.8 31.5-4.6-0.8-5.7-16.1-2.6-34.3 3.1-18.1 9.3-32.2 13.8-31.4z"/><path class="a" d="m2196 161.9c3.9 2.3-10.8 34-32.8 70.6-22.1 36.6-43.1 64.4-47 62-3.9-2.3 10.7-33.9 32.8-70.6 22-36.6 43.1-64.4 47-62z"/><path class="a" d="m2236.5 338.3c3.5 2.9-4.6 18-18 33.6-13.4 15.5-27.1 25.8-30.6 22.8-3.4-3 4.6-18.1 18-33.6 13.5-15.6 27.1-25.8 30.6-22.8z"/><path class="a" d="m2411 390.8c1.8 4.3-33.5 23.3-78.9 42.6-45.3 19.3-83.5 31.5-85.3 27.3-1.8-4.2 33.5-23.3 78.8-42.5 45.4-19.3 83.6-31.6 85.4-27.4z"/><path class="a" d="m2339.8 546.2c0.4 4.6-19.8 10.4-45.2 13-25.5 2.7-46.5 1.1-47-3.4-0.4-4.6 19.8-10.4 45.2-13.1 25.5-2.6 46.5-1 47 3.5z"/><path class="a" d="m2393.3 699c-1.1 4.4-33.5-0.3-72.3-10.4-38.8-10.2-69.4-22-68.2-26.4 1.1-4.5 33.6 0.2 72.4 10.3 38.8 10.2 69.3 22 68.1 26.5z"/><path class="a" d="m2295.1 742.1c-2 4.1-13.9 2.4-26.6-3.8-12.7-6.1-21.4-14.5-19.4-18.6 2-4.1 14-2.4 26.6 3.7 12.7 6.2 21.4 14.6 19.4 18.7z"/><path class="a" d="m2305.1 854.4c-2.4 3.9-27.2-7.2-55.3-24.8-28.2-17.6-49-35-46.6-38.9 2.4-3.8 27.2 7.3 55.3 24.9 28.2 17.5 49 35 46.6 38.8z"/><path class="a" d="m2112.5 886.7c-3.4 3.1-17.4-7-31.3-22.5-13.8-15.4-22.3-30.5-18.9-33.5 3.5-3.1 17.4 7 31.3 22.5 13.8 15.5 22.3 30.5 18.9 33.5z"/><g style="opacity:.3"><path class="b" d="m1201.4 1733.3c-98 102.7-246.1 168-411.7 168-99.6 0-192.8-23.7-272.7-64.9-10.5-5.3-20.7-11.1-30.7-17.1-28.9-17.3-55.8-37-80.1-58.9 47.6-33.3 88.9-60 115-76.3 6.5-20.7 13.3-39.9 20.3-57.1 26.6-65.7 560.3-147.7 648.7 55.9 2.3 9.5 4.4 18.9 6.4 28.2 1.7 7.5 3.2 14.8 4.8 22.2z"/></g><path class="a" d="m1517.9 1282.9c-22.4 111.5-73.2 218-151.3 308.3-16 18.5-33 36.2-51.1 53.1-8.8 8.3-18 16.4-27.4 24.4-28.4 23.8-58.2 45-89.1 63.6-26.6 16-54 30.1-82 42.2-33.8 14.7-68.5 26.5-103.7 35.5q-19.2 4.8-38.6 8.7c-236.8 46.3-491-31.3-658.2-225-246.5-285.3-210.9-714.3 79.2-958.1 55.9-47 117.2-83.7 181.5-110.2 7.5-3.2 15.1-6.2 22.7-9q30.7-11.4 62-19.9c48.3-13 97.6-20.6 147-23 49.3-2.5 98.9 0.2 147.5 8.2q23.2 3.7 46.2 9c22.9 5.4 45.6 11.8 68 19.6 111.6 38.1 214.6 105.2 296.7 200.3 141.8 164 190.2 375.7 150.6 572.3z"/><g style="opacity:.3"><path class="b" d="m316.5 1593.6c167.2 193.8 421.4 271.4 658.2 225.1q19.4-3.9 38.6-8.7c35.2-9 69.9-20.8 103.7-35.5 28-12.1 55.4-26.2 82-42.2 30.9-18.6 60.7-39.8 89.1-63.6 9.4-8 18.5-16.1 27.4-24.3 18.1-17 35.1-34.8 51.1-53.2 78.1-90.3 128.9-196.8 151.3-308.4 12.4-61.2 16.2-124 11.3-186.2-23.9 105.9-73.6 206.8-148.1 293q-23.9 27.7-51.1 53.1c-8.8 8.3-18 16.3-27.4 24.3-28.4 23.9-58.2 45.1-89 63.6-26.7 16.1-54.1 30.1-82.1 42.3-33.8 14.6-68.5 26.4-103.6 35.4q-19.3 4.9-38.7 8.7c-236.8 46.4-490.9-31.3-658.2-225-97.6-113-151-248.5-161.8-386.1-45.4 200.9 1.8 419.4 147.3 587.7z"/></g><path fill-rule="evenodd" class="b" d="m840.4 1844.3c-203.3 0-399.3-87-533.5-242.4-120.9-140-179.4-318.2-164.8-501.9 14.8-185.1 102-353.5 245.5-474.1 55.9-47 118.1-84.8 184.8-112.2 7.2-3.1 14.8-6.1 23.2-9.1 20.6-7.7 41.8-14.6 63-20.3 48.7-13.1 99-21 149.7-23.5 50.1-2.5 100.6 0.3 150.1 8.4 15.9 2.6 31.7 5.7 47 9.2 23.8 5.6 47.1 12.3 69.3 19.9 117 40 221.5 110.5 302.2 204 139.6 161.6 195.5 374.1 153.4 583.1-23.3 115.8-76.6 224.4-154.2 314.1-16.4 19-33.9 37.2-52 54.1-8.3 7.7-17.4 15.8-27.8 24.7-28.6 24-59.1 45.8-90.8 64.8-26.5 16-54.6 30.5-83.5 43-33.8 14.7-69.3 26.8-105.5 36.1-13 3.3-26.3 6.3-39.4 8.9-45.5 8.9-91.3 13.2-136.7 13.2zm3.5-1359.1q-17.2 0-34.4 0.9c-48.8 2.4-97.4 10-144.3 22.6-20.4 5.5-40.9 12.1-60.9 19.6-8 2.9-15.3 5.8-22.2 8.7-64.3 26.5-124.3 62.9-178.3 108.2-138.3 116.3-222.3 278.5-236.5 456.8-14.1 176.9 42.3 348.6 158.7 483.4 158.3 183.2 405.9 267.9 646.3 220.9 12.6-2.5 25.4-5.4 37.9-8.6 34.9-8.9 69.2-20.6 101.8-34.8 27.9-12.1 54.9-26 80.5-41.5 30.6-18.3 60-39.3 87.5-62.4 10-8.6 18.8-16.4 26.8-23.9 17.5-16.3 34.4-33.8 50.2-52.1 74.7-86.4 126.1-191 148.5-302.6 40.6-201.3-13.3-406-147.8-561.6-77.7-90-178.4-158-291.2-196.6-21.4-7.3-43.9-13.8-66.8-19.2-14.7-3.4-30-6.4-45.3-8.9-36.5-5.9-73.5-8.9-110.5-8.9z"/><path fill-rule="evenodd" class="b" d="m840.4 1846.8c-204 0-400.7-87.3-535.4-243.3-121.3-140.5-180.1-319.4-165.4-503.7 14.9-185.8 102.3-354.8 246.4-475.8 56.1-47.2 118.5-85.1 185.4-112.6 7.3-3.1 14.9-6.1 23.3-9.2 20.7-7.7 42-14.5 63.3-20.3 48.8-13.1 99.3-21.1 150.1-23.6 50.3-2.5 101 0.3 150.7 8.4 16 2.6 31.9 5.7 47.2 9.3 23.9 5.6 47.2 12.3 69.5 20 117.4 40.1 222.3 110.9 303.2 204.7 140.1 162.1 196.3 375.4 154.1 585.2-23.4 116.2-77 225.2-154.8 315.2-16.5 19.1-34 37.3-52.2 54.3-8.3 7.8-17.5 15.9-27.9 24.8-28.7 24.1-59.3 45.9-91.1 65-26.6 16.1-54.8 30.6-83.8 43.2-33.9 14.7-69.6 26.9-105.9 36.2-13.1 3.3-26.3 6.3-39.5 8.9-45.7 8.9-91.6 13.3-137.2 13.3zm3.5-1359.1q-17.1 0-34.3 0.9c-48.6 2.4-97 10-143.8 22.5-20.3 5.5-40.7 12.1-60.6 19.5-8 2.9-15.2 5.8-22.1 8.7-64.2 26.4-123.9 62.7-177.7 107.8-137.7 115.8-221.4 277.4-235.6 455.1-14.1 176.2 42.1 347.2 158.1 481.6 157.7 182.6 404.4 266.9 643.9 220 12.6-2.5 25.3-5.3 37.8-8.5 34.8-8.9 68.9-20.6 101.4-34.7 27.8-12 54.8-25.9 80.2-41.3 30.5-18.3 59.8-39.2 87.2-62.2 10-8.5 18.7-16.3 26.7-23.8 17.4-16.3 34.3-33.7 50-52 74.5-86 125.6-190.3 148-301.4 40.4-200.5-13.3-404.4-147.2-559.5-77.5-89.7-177.9-157.4-290.2-195.8-21.3-7.4-43.7-13.8-66.6-19.1-14.6-3.5-29.8-6.4-45.1-8.9-36.3-5.9-73.2-8.9-110.1-8.9z"/><path class="b" d="m1461.6 1448.1c-302.3 384.5-886.6 357.1-1058.4-92.6-116.8-305.9 97.2-655.9 402.8-748.7 222.4-67.6 469.2-37.7 668.8 273.6 0 0 66.7 151.4 56.4 269-10.3 117.7-40.5 230.5-40.5 230.5z"/><path class="e" d="m403.3 1355.5c171.7 449.7 756 477.1 1058.3 92.6l5.9-13.8c-401 205.5-902.7 85.8-1085-365.7-19.9 93.9-15.3 192.5 20.8 286.9z"/><path fill-rule="evenodd" class="b" d="m925.2 1802.5c-92.8 0-184-18.1-267-54.2-156.9-68.3-273.8-193.3-338.1-361.5-59-154.5-48.1-328.2 30.6-488.9 87.5-178.6 249.2-318.5 432.6-374.2 101.9-30.9 199.2-40.9 289.3-29.6l1.7 0.2 1.5 0.5c117.7 40.2 222.7 111.2 303.8 205.1 140.4 162.4 196.6 376.1 154.3 586.2-23.4 116.4-77 225.7-155 315.8-16.5 19.1-34.1 37.4-52.3 54.4-8.3 7.8-17.5 15.9-27.9 24.8-28.8 24.1-59.4 46-91.3 65.1l-2.3 1.2c-90.7 36.7-186.2 55.1-279.9 55.1zm74.1-1280.3c-65.6 0-134.8 10.9-206.5 32.7-174.9 53.1-329.2 186.7-412.8 357.3-74.7 152.6-85.2 317-29.4 462.9 61.1 159.9 171.9 278.6 320.6 343.3 158.5 69 348.1 68.7 520.5-0.8 30-18.1 58.9-38.7 85.9-61.4 10-8.5 18.7-16.3 26.7-23.8 17.4-16.2 34.2-33.6 49.9-51.8 74.3-85.9 125.4-190 147.7-301 40.3-200.1-13.2-403.6-146.9-558.4-77-89.1-176.6-156.5-288.1-195-22.1-2.6-44.7-4-67.6-4zm199.7 1210.1h0.1z"/><path class="a" d="m102.3 1417.1c32.2 130.1 137.2 220.2 234.5 201.2 97.3-19 150.1-139.9 117.9-270.1-0.2-0.8-0.4-1.6-0.6-2.5-32.9-128.7-137.3-217.6-233.9-198.7-75.2 14.7-123.8 90.2-127.2 183.8-1 27.5 2 56.7 9.3 86.3z"/><g style="opacity:.3"><path class="b" d="m102.3 1417.1c32.2 130.1 137.2 220.2 234.5 201.2 97.3-19 150.1-139.9 117.9-270.1-0.2-0.8-0.4-1.6-0.6-2.5-7.4 15.5-20.8 31.9-44.5 31.9-41.4-0.1-133.1-69.9-133.1-69.9 0 0-79.6 9.5-183.5 23.1-1 27.5 2 56.7 9.3 86.3z"/></g><path fill-rule="evenodd" class="b" d="m310.9 1638.4c-97.2 0-194.5-90.9-225.8-217.1-19.8-80.1-10-159.3 26.9-217.2 25.7-40.3 61.9-66 104.8-74.4 106.2-20.7 220.6 75.4 255 214.3 19.9 80.2 10.1 159.3-26.8 217.2-25.7 40.3-61.9 66-104.8 74.4-9.7 1.9-19.5 2.8-29.3 2.8zm-191.5-225.5c29.9 120.9 125.9 205.3 214 188.1 33.2-6.5 61.5-26.8 81.8-58.7 31.3-49.1 39.7-120 22.4-189.8-30-121-126-205.4-214.1-188.1-33.1 6.4-61.4 26.7-81.7 58.6-31.3 49.1-39.7 120.1-22.4 189.9z"/><path class="a" d="m114 1514.8c55.8 88.6 151.7 116.1 214.3 61.5 62.6-54.6 68-170.6 12.3-259.1-55.8-88.6-151.8-116.1-214.4-61.5-62.5 54.5-68 170.6-12.2 259.1z"/><g style="opacity:.3"><path class="b" d="m380.8 1462.7c0.3-36.6-9.6-73.3-26.6-105.9-7.7 83.3-70.9 131.9-147.2 109.9-49.2-14.2-92.7-54.6-119-105.1-0.5 5.3-0.7 10.7-0.8 16.3-0.6 93 64.6 187.4 145.7 210.9 81.1 23.4 147.3-33.1 147.9-126.1z"/></g><path fill-rule="evenodd" class="b" d="m256.3 1621.1c-75.9 0-153.7-76.2-180.1-180.9-17-67.6-9.4-135.7 20.3-182 19.1-30 46-48.9 77.5-54.9 81.8-15.3 171.7 65 200.4 179 17 67.7 9.5 135.7-20.2 182.1-19.2 30-46 48.9-77.6 54.8-6.7 1.3-13.5 1.9-20.3 1.9zm-61.2-387.1q-7.6 0-15.1 1.4c-22.5 4.2-41.9 18.2-56.1 40.3-24.9 39-30.9 97.5-16.1 156.6 24.6 97.6 97.7 167.1 162.8 154.9 22.5-4.2 41.9-18.2 56.1-40.4 25-38.9 31-97.4 16.1-156.5-22.7-90.1-86.7-156.3-147.7-156.3z"/><g style="opacity:.5"><path class="a" d="m691.5 796.3c0 0 289.1-68.3 494.8 45.1q0.4 0.2 0.7 0.4c43.3 23.9 79.2 59 104.2 101.2 33 55.8 47.5 99.1 58.8 137.7 34.2 117.5 27.9 178.9 27.9 178.9 49.7-81.5 67.4-162.8 39.9-260.9q-4.1-14.5-9.5-29.5-1.2-3.5-2.6-6.9 0.1-0.1 0-0.1c-8.7-19.8-21.2-45.4-37.7-73.1-49.7-83.5-136-186.3-266.8-208.1-244.5-40.7-423.1 105.9-409.7 115.3z"/></g><g style="opacity:.5"><path class="a" d="m651.8 1155.8c1 58.4-39.4 106.6-90.3 107.7-50.8 1-92.9-45.5-94-103.9-1-58.5 39.3-106.7 90.2-107.8 50.9-1 93 45.5 94.1 104z"/></g><g style="opacity:.5"><path class="a" d="m601.1 1352.3c-1.7 24.1-20 42.6-41 41.3-20.9-1.4-36.6-21.9-35-46 1.7-24.1 20-42.6 41-41.3 20.9 1.3 36.6 21.9 35 46z"/></g></svg>